<svg xmlns="http://www.w3.org/2000/svg" width="226.772" height="226.772" viewBox="0 0 226.772 226.772"><defs><clipPath id="a" clipPathUnits="userSpaceOnUse"><path d="M-83.789 120.663h170.08v-170.08H-83.79Z"/></clipPath><clipPath id="b" clipPathUnits="userSpaceOnUse"><path d="M-25.736 53.79h170.08v-170.079h-170.08Z"/></clipPath><clipPath id="c" clipPathUnits="userSpaceOnUse"><path d="M-104.403 137.575H65.676V-32.504h-170.08Z"/></clipPath><clipPath id="d" clipPathUnits="userSpaceOnUse"><path d="M-34.782 130.241h170.079V-39.838H-34.782Z"/></clipPath><clipPath id="e" clipPathUnits="userSpaceOnUse"><path d="M-127.497 120.85H42.582V-49.229h-170.08Z"/></clipPath></defs><path d="M0 0c-.099-1.998-.204-3.996-.297-5.993-.075-1.633-1.11-2.635-2.798-2.655-1.678-.018-3.356-.009-5.035-.011h-5.232l-.449-8.748h9.588c-.034-.623-.062-1.207-.097-1.791a843 843 0 0 0-.222-3.523c-.039-.611-.159-1.203-.458-1.746-.587-1.064-1.564-1.511-2.707-1.532-1.588-.03-3.178.047-4.767.073-.568.008-1.136.001-1.746.001l-.577-9.078h14.26c-.024-.335-.041-.634-.067-.93-.154-1.787-.312-3.574-.463-5.36-.129-1.537-.999-2.299-2.692-2.318-1.796-.021-3.592-.024-5.387-.03q-5.844-.022-11.689-.032c-.985-.001-1.955.12-2.886.469-1.354.507-2.038 1.51-2.196 2.924-.142 1.279.026 2.547.092 3.817.073 1.401.178 2.799.267 4.198q.17 2.642.336 5.283l.255 4.109.333 5.196.255 4.051.335 5.283.255 4.109.252 3.966c.157.008.31.019.463.021L-9.091-.1q2.71.026 5.417.06c.164.002.329.027.493.04z" clip-path="url(#a)" style="fill:#17242a;fill-opacity:1;fill-rule:nonzero;stroke:none" transform="matrix(1.33333 0 0 -1.33333 111.718 160.884)"/><path d="M0 0c.259 1.787.466 3.585.79 5.359 2.205 12.139 8.069 22.2 17.418 30.208 7.965 6.826 17.229 10.902 27.61 12.279 27.362 3.626 52.344-13.468 58.613-38.812 4.031-16.297.631-31.208-9.783-44.364-7.842-9.909-18.188-15.951-30.499-18.684-.094-.019-.194-.003-.418-.003.946.473 1.817.848 2.623 1.327.849.505 1.691 1.049 2.439 1.687 6.893 5.881 11.252 13.238 12.864 22.188.573 3.166.266 6.291-.223 9.435-.997 6.428-.308 12.742 1.496 18.959 2.263 7.807 5.945 14.905 10.734 21.449.113.152.214.311.198.664-1.399-.69-2.827-1.328-4.197-2.079-6.321-3.468-11.735-7.94-15.475-14.215-2.389-4.012-3.604-8.371-3.892-13.027-.421-6.845-.796-13.694-1.421-20.523-.645-7.065-3.115-13.567-6.765-19.635-.353-.59-2.104-1.289-2.716-1.072-.755.269-.823.939-.687 1.561.23 1.055.538 2.101.887 3.128 1.419 4.17 3.038 8.283 4.255 12.508 1.444 5.029 1.075 9.97-1.667 14.601a122 122 0 0 0-3.659 6.67c-.716 1.399-1.406 2.846-1.823 4.352-.693 2.493.129 4.899.88 7.253 1.244 3.883 2.685 7.704 3.349 11.758a72 72 0 0 1 .741 17.246c-.256 3.293-.606 6.589-1.852 9.662-.738 1.826-1.875 3.494-2.833 5.233l-.353-.162c.233-1.27.492-2.539.693-3.815.777-4.986 1.029-9.966-.269-14.917-1.062-4.045-3.329-7.438-5.916-10.631-2.034-2.51-4.103-5-6.275-7.392-2.847-3.132-3.783-6.885-4.097-10.961-.489-6.373 1.856-11.787 5.301-16.909 2.629-3.909 5.23-7.843 7.697-11.858.92-1.493 1.506-3.212 2.085-4.88.496-1.431.279-2.836-.612-4.145-.495-.725-.877-1.547-1.195-2.373-1.01-2.61-.79-4.242.81-6.509-2.03.246-3.271 1.299-3.802 3.29-1.596 6.01-5.083 10.589-10.371 13.908-4.031 2.529-7.571 5.637-9.883 9.915-1.577 2.917-2.221 6.055-1.939 9.348.294 3.413.615 6.822 1.068 10.216.357 2.665.991 5.275 3.281 7.095-.127.077-.192.139-.211.126-4.851-2.992-9.157-6.57-12.356-11.359-2.934-4.391-3.323-9.132-1.998-14.112 1.758-6.599 5.216-12.12 10.468-16.511 2.228-1.861 4.845-2.872 7.584-3.681 2.94-.868 5.916-1.729 8.283-3.808.819-.716 1.59-1.61 2.066-2.574 1.182-2.413 2.179-4.916 3.361-7.626-2.668.356-5.23.567-7.733 1.062-11.446 2.257-21.222 7.609-29.129 16.203C6.534-30.328 2.166-21.387.589-11.126.376-9.73.198-8.328 0-6.929z" clip-path="url(#b)" style="fill:#17242a;fill-opacity:1;fill-rule:nonzero;stroke:none" transform="matrix(1.33333 0 0 -1.33333 34.314 71.72)"/><path d="M0 0a6.7 6.7 0 0 1 3.166.602c1.154.539 1.852 1.425 1.897 2.711.026.777-.046 1.565-.151 2.337-.141 1.057-.758 1.802-1.703 2.28a5.9 5.9 0 0 1-2.551.617c-1.146.025-2.293-.037-3.439-.05-.301-.003-.386-.137-.401-.423A940 940 0 0 0-3.595.76c-.014-.229.051-.327.269-.389C-2.288.073-1.229-.024 0 0m-4.235-8.913-.012-.216-.279-4.669c-.083-1.42-.163-2.839-.248-4.259-.009-.164-.005-.286.197-.356 2.049-.707 4.115-.779 6.172-.088 1.665.558 2.697 1.696 2.91 3.487.114.953.022 1.898-.111 2.842-.098.679-.29 1.319-.699 1.878C2.952-9.276 1.884-8.836.69-8.631c-1.114.191-2.229.133-3.341-.013-.531-.069-1.056-.178-1.584-.269m-9.678 25.63c.861 0 1.694.002 2.526-.001l11.688-.053c2.342-.01 4.66-.205 6.919-.87 1.923-.565 3.698-1.41 5.151-2.825 1.603-1.562 2.472-3.472 2.648-5.705.104-1.323.133-2.641-.054-3.961-.425-2.979-2.002-5.131-4.649-6.522-.405-.213-.823-.4-1.283-.621.494-.219.944-.428 1.402-.619 1.382-.575 2.574-1.373 3.325-2.72a9.7 9.7 0 0 0 .989-2.629c.753-3.404.491-6.703-1.166-9.817-1.356-2.548-3.466-4.293-6.067-5.475a18.2 18.2 0 0 0-5.673-1.534c-1.403-.147-2.815-.22-4.226-.28-1.704-.072-3.412-.133-5.118-.129-1.623.005-3.228.211-4.755.811-2.291.898-3.567 2.58-3.89 5.015-.156 1.17-.03 2.331.038 3.494.08 1.39.177 2.778.267 4.167l.333 5.195.257 4.08.332 5.166.257 4.08.331 5.166q.13 2.04.257 4.08z" clip-path="url(#c)" style="fill:#17242a;fill-opacity:1;fill-rule:nonzero;stroke:none" transform="matrix(1.33333 0 0 -1.33333 139.204 183.434)"/><path d="M0 0c0-.143.002-.241 0-.338l-.135-4.734c-.074-2.647-.145-5.293-.226-7.938-.006-.197.068-.267.24-.331.949-.35 1.93-.528 2.937-.481.552.026 1.128.07 1.643.251 1.805.633 3.005 1.946 3.8 3.639 1.101 2.348 1.164 4.778.49 7.252C8.285-.98 7.18.026 5.453.358 4.42.557 3.383.503 2.35.371 1.574.271.804.129 0 0m-2.222-34.086c-1.267-.031-2.509-.087-3.751-.084-1.141.004-2.268.167-3.35.551-1.703.605-2.898 1.706-3.164 3.554-.12.843-.055 1.719-.017 2.577.063 1.381.174 2.759.263 4.139l.337 5.253q.125 2.01.254 4.021l.335 5.224c.086 1.361.168 2.721.255 4.08l.331 5.137q.13 2.039.257 4.08l.314 4.93c.113.005.217.015.32.015 4.456-.018 8.911-.013 13.366-.063 2.871-.032 5.713-.344 8.449-1.286 1.801-.619 3.441-1.511 4.793-2.88 1.468-1.486 2.335-3.29 2.709-5.314.839-4.521.382-8.908-1.63-13.066-2.265-4.683-5.966-7.564-11.091-8.583-1.851-.368-3.718-.434-5.593-.293-.869.065-1.734.171-2.629.262z" clip-path="url(#d)" style="fill:#17242a;fill-opacity:1;fill-rule:nonzero;stroke:none" transform="matrix(1.33333 0 0 -1.33333 46.376 173.655)"/><path d="M0 0h.322c1.884 0 3.769.007 5.653-.004.797-.004 1.585-.109 2.334-.401 1.377-.539 2.102-1.587 2.204-3.024.06-.845-.02-1.702-.07-2.552-.072-1.213-.177-2.425-.266-3.637l-.336-4.605c-.106-1.466-.208-2.933-.315-4.401-.108-1.505-.222-3.01-.331-4.516q-.159-2.2-.315-4.4l-.332-4.517-.194-2.64c-.004-.056 0-.113 0-.221h11.999c0-.223.007-.394-.001-.566-.093-1.743-.172-3.487-.294-5.228a5.2 5.2 0 0 0-.321-1.424c-.331-.893-1.038-1.351-1.965-1.46-.368-.043-.744-.027-1.115-.017q-3.194.09-6.386.186c-2.688.079-5.376.151-8.063.248a7.7 7.7 0 0 0-2.416.457c-1.476.548-2.255 1.594-2.259 3.166-.003 1.166.069 2.332.133 3.497.075 1.38.177 2.759.266 4.138l.333 5.078.256 3.992q.167 2.553.332 5.107.13 1.996.257 3.992l.334 5.107.255 3.992z" clip-path="url(#e)" style="fill:#17242a;fill-opacity:1;fill-rule:nonzero;stroke:none" transform="matrix(1.33333 0 0 -1.33333 169.996 161.134)"/></svg>