<svg xmlns="http://www.w3.org/2000/svg" width="226.772" height="75.591" viewBox="0 0 226.772 75.591"><defs><clipPath id="a" clipPathUnits="userSpaceOnUse"><path d="M-102.39 5.516H67.69v-56.693h-170.08Z"/></clipPath><clipPath id="b" clipPathUnits="userSpaceOnUse"><path d="M-1.14 20.741h170.079v-56.693H-1.141Z"/></clipPath><clipPath id="c" clipPathUnits="userSpaceOnUse"><path d="M-123.803 23.084H46.276v-56.693h-170.08Z"/></clipPath><clipPath id="d" clipPathUnits="userSpaceOnUse"><path d="M-51.481 15.466h170.079v-56.693h-170.08Z"/></clipPath><clipPath id="e" clipPathUnits="userSpaceOnUse"><path d="M-147.793 5.71H22.286v-56.692h-170.08Z"/></clipPath></defs><path d="M0 0c-.103-2.075-.212-4.151-.308-6.226-.078-1.696-1.154-2.737-2.907-2.757-1.743-.019-3.486-.01-5.23-.012h-5.435l-.467-9.087h9.96c-.035-.647-.064-1.254-.101-1.861q-.11-1.829-.23-3.659c-.041-.635-.165-1.25-.476-1.814-.61-1.105-1.625-1.57-2.812-1.592-1.65-.031-3.301.049-4.952.076-.59.009-1.18.001-1.814.001l-.599-9.43H-.558c-.025-.348-.042-.658-.069-.966-.16-1.856-.325-3.712-.481-5.568-.134-1.596-1.038-2.388-2.797-2.408-1.865-.021-3.731-.025-5.596-.031a6143 6143 0 0 0-12.142-.033c-1.023-.001-2.031.125-2.998.487-1.407.527-2.117 1.569-2.281 3.038-.148 1.328.027 2.645.095 3.965.076 1.455.185 2.907.278 4.36q.176 2.745.349 5.488l.265 4.269.345 5.397.265 4.208q.175 2.743.348 5.488l.265 4.269.262 4.12c.163.008.322.019.481.021l14.525.153q2.814.028 5.627.062c.171.002.342.028.513.042z" clip-path="url(#a)" style="fill:#2b7a78;fill-opacity:1;fill-rule:nonzero;stroke:none" transform="matrix(1.33333 0 0 -1.33333 136.52 7.354)"/><path d="M0 0c.08.552.144 1.107.244 1.655.681 3.749 2.492 6.856 5.379 9.329 2.46 2.108 5.321 3.367 8.527 3.792 8.45 1.12 16.165-4.159 18.101-11.986 1.245-5.033.195-9.638-3.021-13.701-2.422-3.06-5.617-4.926-9.419-5.77-.029-.006-.06-.001-.129-.001.292.146.561.262.81.41.262.156.522.324.753.521 2.129 1.816 3.475 4.088 3.973 6.852.177.978.082 1.943-.069 2.914-.308 1.985-.095 3.935.462 5.855.699 2.411 1.836 4.603 3.315 6.624a.28.28 0 0 1 .061.205c-.432-.213-.873-.41-1.296-.642-1.952-1.071-3.624-2.452-4.779-4.39-.738-1.239-1.113-2.585-1.202-4.023-.13-2.114-.246-4.229-.439-6.338-.199-2.182-.962-4.19-2.089-6.064-.109-.182-.65-.398-.839-.331-.233.083-.254.29-.212.482.071.326.166.649.274.966.438 1.288.938 2.558 1.314 3.863.446 1.553.332 3.079-.515 4.509a38 38 0 0 0-1.13 2.06c-.221.432-.434.879-.563 1.344-.214.77.04 1.513.272 2.24.384 1.199.829 2.379 1.034 3.631q.435 2.65.229 5.326c-.079 1.017-.187 2.035-.572 2.984-.228.564-.579 1.079-.875 1.616l-.109-.05c.072-.392.152-.784.214-1.178.24-1.54.318-3.078-.083-4.607-.328-1.249-1.028-2.297-1.827-3.283a53 53 0 0 0-1.938-2.283c-.879-.967-1.168-2.126-1.265-3.385-.151-1.968.573-3.64 1.637-5.222a106 106 0 0 0 2.377-3.662c.284-.461.465-.992.644-1.507.153-.442.086-.876-.189-1.28a3.6 3.6 0 0 1-.369-.733c-.312-.806-.244-1.31.25-2.01-.627.076-1.01.401-1.174 1.016-.493 1.856-1.57 3.27-3.203 4.295-1.245.781-2.338 1.741-3.052 3.062a5.06 5.06 0 0 0-.599 2.887c.091 1.054.19 2.107.33 3.155.11.823.306 1.629 1.013 2.191-.039.024-.059.043-.065.039C8.693.453 7.363-.652 6.375-2.131c-.906-1.356-1.026-2.82-.617-4.358.543-2.038 1.611-3.743 3.233-5.099.688-.575 1.496-.887 2.342-1.137.908-.268 1.827-.534 2.558-1.176.253-.221.491-.497.638-.795.365-.745.673-1.518 1.038-2.355-.824.11-1.615.175-2.388.328-3.535.697-6.554 2.35-8.996 5.004C2.018-9.366.669-6.605.182-3.436.116-3.005.061-2.572 0-2.14z" clip-path="url(#b)" style="fill:#2b7a78;fill-opacity:1;fill-rule:nonzero;stroke:none" transform="matrix(1.33333 0 0 -1.33333 1.52 27.655)"/><path d="M0 0a6.94 6.94 0 0 1 3.289.625c1.199.56 1.924 1.481 1.97 2.816.027.808-.047 1.626-.156 2.428-.147 1.098-.788 1.872-1.77 2.369a6.1 6.1 0 0 1-2.65.641c-1.19.025-2.381-.039-3.572-.052-.313-.004-.401-.143-.416-.44A1014 1014 0 0 0-3.734.79c-.015-.238.053-.34.279-.405C-2.377.076-1.277-.025 0 0m-4.399-9.259-.013-.224-.29-4.85c-.086-1.475-.169-2.949-.257-4.424-.01-.171-.005-.298.204-.37 2.129-.735 4.275-.809 6.412-.092 1.729.58 2.801 1.762 3.023 3.623.118.99.023 1.971-.116 2.952-.101.705-.301 1.37-.726 1.951C3.066-9.636 1.957-9.179.717-8.966c-1.157.199-2.316.138-3.471-.013-.551-.072-1.097-.185-1.645-.28m-10.054 26.624c.895 0 1.76.003 2.624-.001l12.142-.055c2.432-.01 4.84-.213 7.187-.903 1.998-.587 3.842-1.465 5.351-2.935 1.665-1.623 2.568-3.607 2.751-5.926.108-1.375.138-2.744-.057-4.115-.441-3.094-2.079-5.33-4.829-6.775-.421-.221-.855-.415-1.333-.645.514-.227.981-.445 1.457-.643 1.435-.597 2.674-1.426 3.454-2.825.479-.86.815-1.775 1.027-2.731.782-3.537.51-6.964-1.211-10.198-1.409-2.647-3.601-4.46-6.302-5.688a18.9 18.9 0 0 0-5.894-1.593c-1.457-.153-2.924-.229-4.389-.291-1.771-.075-3.545-.138-5.317-.134-1.686.005-3.353.219-4.939.842-2.38.933-3.706 2.681-4.041 5.21-.162 1.215-.031 2.421.039 3.629.083 1.444.184 2.886.277 4.329q.175 2.698.346 5.397l.267 4.238.345 5.366.267 4.239.344 5.366.267 4.238z" clip-path="url(#c)" style="fill:#2b7a78;fill-opacity:1;fill-rule:nonzero;stroke:none" transform="matrix(1.33333 0 0 -1.33333 165.071 30.78)"/><path d="M0 0c0-.149.002-.25 0-.351l-.14-4.918c-.077-2.749-.151-5.498-.235-8.246-.006-.204.071-.277.249-.343.986-.364 2.005-.549 3.051-.5.574.027 1.172.073 1.707.261 1.875.657 3.122 2.021 3.947 3.78 1.144 2.439 1.21 4.963.509 7.533C8.606-1.018 7.459.027 5.665.372 4.591.579 3.514.523 2.441.385 1.635.282.835.134 0 0m-2.308-35.408c-1.316-.032-2.607-.091-3.897-.087-1.185.004-2.356.173-3.48.572-1.769.628-3.01 1.772-3.286 3.692-.125.875-.058 1.785-.018 2.677.065 1.434.181 2.866.273 4.299q.176 2.728.35 5.457.131 2.089.264 4.177l.348 5.427.265 4.238.344 5.336.267 4.238.326 5.122c.117.005.225.015.332.015 4.629-.018 9.257-.013 13.885-.065 2.982-.033 5.934-.358 8.777-1.336 1.87-.643 3.574-1.57 4.979-2.992 1.524-1.543 2.425-3.417 2.814-5.52.871-4.696.396-9.253-1.694-13.573-2.352-4.864-6.197-7.857-11.521-8.916-1.923-.382-3.862-.451-5.81-.304-.902.067-1.801.178-2.731.272z" clip-path="url(#d)" style="fill:#2b7a78;fill-opacity:1;fill-rule:nonzero;stroke:none" transform="matrix(1.33333 0 0 -1.33333 68.642 20.621)"/><path d="M0 0h.334C2.292 0 4.25.007 6.207-.004c.828-.004 1.646-.113 2.424-.417 1.431-.56 2.184-1.648 2.29-3.141.062-.878-.021-1.768-.073-2.651-.075-1.26-.184-2.519-.276-3.778q-.176-2.392-.349-4.784c-.11-1.523-.216-3.047-.327-4.571-.113-1.564-.231-3.127-.344-4.692l-.328-4.57L8.88-33.3l-.202-2.743c-.004-.058 0-.117 0-.229h12.464c0-.232.008-.41-.001-.588-.096-1.811-.178-3.623-.305-5.431a5.4 5.4 0 0 0-.333-1.479c-.344-.928-1.079-1.404-2.042-1.517-.382-.045-.772-.028-1.158-.018q-3.317.093-6.634.193c-2.792.083-5.584.157-8.375.258a8 8 0 0 0-2.51.475c-1.533.569-2.343 1.656-2.347 3.289-.003 1.211.072 2.422.138 3.632.078 1.434.184 2.866.277 4.299l.346 5.275.266 4.147.345 5.305q.134 2.073.266 4.147l.347 5.305.265 4.146z" clip-path="url(#e)" style="fill:#2b7a78;fill-opacity:1;fill-rule:nonzero;stroke:none" transform="matrix(1.33333 0 0 -1.33333 197.058 7.614)"/></svg>